# xmcd
#
# Track frame offsets:
#	150
#	22128
#	40620
#	53451
#	65432
#	86624
#	105506
#	122952
#	141073
#	153263
#	170867
#	196374
#	214365
#	237145
#	257500
#	274860
#	295750
#
# Disc length: 4185 seconds
#
# Revision: 0
# Processed by: cddbd v1.4PL0 Copyright (c) Steve Scherf et al.
# Submitted via: EZCDDA 4.3.3.2
#
DISCID=f3105711
DTITLE=Joe Cocker
DYEAR=1900
DGENRE=
TTITLE0=With a little help from my friends 
TTITLE1=Feeling alright 
TTITLE2=Delta lady 
TTITLE3=She came in through the bathroom window 
TTITLE4=Darling be home soon 
TTITLE5=The letter
TTITLE6=Cry me a river
TTITLE7=Midnight rider 
TTITLE8=You are so beautiful 
TTITLE9=Up where we belong (with Jennifer Warnes)
TTITLE10=shelter me
TTITLE11=When the night comes
TTITLE12=Unchain my heart 
TTITLE13=Woman to woman 
TTITLE14=The jealous kind
TTITLE15=Black-eyed blues
TTITLE16=I think it's going to rain
EXTD=
EXTT0=
EXTT1=
EXTT2=
EXTT3=
EXTT4=
EXTT5=
EXTT6=
EXTT7=
EXTT8=
EXTT9=
EXTT10=
EXTT11=
EXTT12=
EXTT13=
EXTT14=
EXTT15=
EXTT16=
PLAYORDER=
